<svg xmlns="http://www.w3.org/2000/svg" xmlns:xlink="http://www.w3.org/1999/xlink" version="1.1" x="0px" y="0px" viewBox="0 0 800 800" style="enable-background:new 0 0 800 800;" xml:space="preserve">
<style type="text/css">
	.st0{display:none;}
	.st1{fill:#ffffff;}
	.st2{fill:#ffffff;}
</style>
<g id="BG" class="st0">
</g>
<g id="Layer_1">
	<g>
		<path class="st1" d="M753.18,306.2v188.75c0,16.43-12.95,29.77-28.99,29.77H573.83c-23.43,0-45.07-12.94-56.61-33.92    C473.3,410.94,409.44,344.31,332.6,297.99c-23.34-14.07-37.95-39.54-37.95-67.38V82.66c0-16.41,13.04-29.83,28.99-29.83h183.35    c16.03,0,28.99,13.4,28.99,29.83v193.7H724.2C740.21,276.36,753.18,289.72,753.18,306.2z" fill="#ffffff"/>
		<path class="st2" d="M294.63,551.84v155.93c0,21.76,17.64,39.4,39.4,39.4h168.33c21.76,0,39.4-17.64,39.4-39.4v-95.58    c0-64.6-67.98-153.96-101.03-191.42C359.36,328.53,277.92,277.6,117.88,277.6H56.46c53.64,101.33,190.11,157.1,278.43,160.43    c-99.49,1.25-232.5-50.38-288.07-152.63c3.47,143.61,102.64,229.04,247.81,239.35c86.82,6.16,171.3,3.67,200.86,47.46    c14.94,22.14,13.5,42.02,13.5,69.14l-0.05,66.42c0,3.63-2.94,6.57-6.57,6.57H334.03c-3.63,0-6.57-2.94-6.57-6.57    c0,0,0-81.39,0-110.19C327.47,555.46,294.63,551.84,294.63,551.84z" fill="#ffffff"/>
	</g>
</g>
</svg>