<svg id="b54f8175-744a-4277-ae6c-7cdff28f7978" data-name="Layer 1" xmlns="http://www.w3.org/2000/svg" xmlns:xlink="http://www.w3.org/1999/xlink" width="865.76" height="682.89" viewBox="0 0 865.76 682.89"><defs><clipPath id="b97de2bf-9cd4-4a78-bbb2-ebe5e21be777"><path id="bc468874-439c-426a-80af-9bec6416bcb5" data-name="SVGID" d="M97.59,280C90,263.58,68,206.12,99.93,141.75c0,0,30.5-101.19,160.67-115.13,0,0,57.52-8.79,138.67,20.5,0,0,93.55,25.37,149.1,15.88,0,0,127.12-11.41,190,85.17,0,0,93.69,116.94,8.69,235.42,0,0-152,87.24-407,70.32,0,0-163.38,32.06-215.75-91.46A169.94,169.94,0,0,1,115.87,337c-2.12-8.61-6.34-24.92-11.18-39.39A167.69,167.69,0,0,0,97.59,280Z" fill="none"/></clipPath></defs><path d="M97.59,280C90,263.58,68,206.12,99.93,141.75c0,0,30.5-101.19,160.67-115.13,0,0,57.52-8.79,138.67,20.5,0,0,93.55,25.37,149.1,15.88,0,0,127.12-11.41,190,85.17,0,0,93.69,116.94,8.69,235.42,0,0-152,87.24-407,70.32,0,0-163.38,32.06-215.75-91.46A169.94,169.94,0,0,1,115.87,337c-2.12-8.61-6.34-24.92-11.18-39.39A167.69,167.69,0,0,0,97.59,280Z" fill="#4C956C"/><path d="M97.59,280C90,263.58,68,206.12,99.93,141.75c0,0,30.5-101.19,160.67-115.13,0,0,57.52-8.79,138.67,20.5,0,0,93.55,25.37,149.1,15.88,0,0,127.12-11.41,190,85.17,0,0,93.69,116.94,8.69,235.42,0,0-152,87.24-407,70.32,0,0-163.38,32.06-215.75-91.46A169.94,169.94,0,0,1,115.87,337c-2.12-8.61-6.34-24.92-11.18-39.39A167.69,167.69,0,0,0,97.59,280Z" fill="#fff" opacity="0.7"/><g clip-path="url(#b97de2bf-9cd4-4a78-bbb2-ebe5e21be777)"><polygon points="153.59 377.83 356.98 350.49 356.98 370.7 134.57 396.85 153.59 377.83" fill="#4C956C"/><polygon points="153.59 377.83 356.98 350.49 356.98 370.7 134.57 396.85 153.59 377.83" fill="#fff" opacity="0.5"/><polygon points="160.13 353.47 320.5 333.85 350.05 351.43 153.59 377.83 160.13 353.47" fill="#4C956C"/><polygon points="160.13 353.47 320.5 333.85 350.05 351.43 153.59 377.83 160.13 353.47" fill="#fff" opacity="0.6"/><polygon points="153.59 288.33 356.98 260.99 356.98 281.19 134.57 307.35 153.59 288.33" fill="#4C956C"/><polygon points="153.59 288.33 356.98 260.99 356.98 281.19 134.57 307.35 153.59 288.33" fill="#fff" opacity="0.5"/><polygon points="160.13 263.96 320.5 244.35 350.05 261.92 153.59 288.33 160.13 263.96" fill="#4C956C"/><polygon points="160.13 263.96 320.5 244.35 350.05 261.92 153.59 288.33 160.13 263.96" fill="#fff" opacity="0.6"/><polygon points="160.13 172.56 320.5 152.94 350.05 170.52 153.59 196.92 160.13 172.56" fill="#4C956C"/><polygon points="160.13 172.56 320.5 152.94 350.05 170.52 153.59 196.92 160.13 172.56" fill="#fff" opacity="0.6"/><polygon points="153.59 196.92 356.98 169.58 356.98 189.79 134.57 215.94 153.59 196.92" fill="#4C956C"/><polygon points="153.59 196.92 356.98 169.58 356.98 189.79 134.57 215.94 153.59 196.92" fill="#fff" opacity="0.5"/><polygon points="153.59 106.98 356.98 79.64 356.98 99.84 134.57 126 153.59 106.98" fill="#4C956C"/><polygon points="153.59 106.98 356.98 79.64 356.98 99.84 134.57 126 153.59 106.98" fill="#fff" opacity="0.5"/><polygon points="160.13 82.61 320.5 63 350.05 80.57 153.59 106.98 160.13 82.61" fill="#4C956C"/><polygon points="160.13 82.61 320.5 63 350.05 80.57 153.59 106.98 160.13 82.61" fill="#fff" opacity="0.6"/><polygon points="318.81 19.02 317.47 452.27 350.05 446.93 350.05 19.02 318.81 19.02" fill="#4C956C"/><polygon points="318.81 19.02 317.47 452.27 350.05 446.93 350.05 19.02 318.81 19.02" fill="#fff" opacity="0.5"/><rect x="350.04" y="19.02" width="259.09" height="445.58" fill="#4C956C"/><rect x="350.04" y="19.02" width="259.09" height="445.58" fill="#fff" opacity="0.5"/><rect x="74.55" y="54.68" width="85.58" height="392.25" fill="#4C956C"/><rect x="74.55" y="54.68" width="85.58" height="392.25" fill="#fff" opacity="0.5"/><rect x="260.6" y="221" width="22.83" height="32.63" rx="1.12" fill="#e6e7e8"/><rect x="264.19" y="223.57" width="15.67" height="26.98" rx="0.66" fill="#4C956C" opacity="0.3"/><rect x="262.65" y="229.99" width="18.5" height="12.42" rx="0.4" fill="#2C6E49"/><rect x="260.6" y="216.11" width="22.83" height="4.89" rx="2.05" fill="#2C6E49"/><polygon points="175.69 322.07 202.22 333.83 287.26 322.07 263.74 309.49 175.69 322.07" fill="#4C956C"/><polygon points="175.69 322.07 202.22 333.83 287.26 322.07 263.74 309.49 175.69 322.07" opacity="0.3"/><polygon points="201.94 368.56 202.22 333.83 175.69 322.07 175.69 355.16 201.94 368.56" fill="#4C956C"/><polygon points="201.94 368.56 202.22 333.83 175.69 322.07 175.69 355.16 201.94 368.56" opacity="0.4"/><polygon points="202.22 333.83 287.26 322.07 287.26 355.43 201.94 368.56 202.22 333.83" fill="#4C956C"/><polygon points="202.22 333.83 287.26 322.07 287.26 355.43 201.94 368.56 202.22 333.83" opacity="0.2"/><polygon points="174.28 238.18 190.34 245.3 247.23 237.44 234.53 229.57 174.28 238.18" fill="#4C956C"/><polygon points="174.28 238.18 190.34 245.3 247.23 237.44 234.53 229.57 174.28 238.18" opacity="0.3"/><polygon points="190.18 266.34 190.34 245.3 174.28 238.18 174.28 258.22 190.18 266.34" fill="#4C956C"/><polygon points="190.18 266.34 190.34 245.3 174.28 238.18 174.28 258.22 190.18 266.34" opacity="0.4"/><polygon points="190.34 245.3 247.23 237.44 248.12 257.42 190.18 266.34 190.34 245.3" fill="#4C956C"/><polygon points="190.34 245.3 247.23 237.44 248.12 257.42 190.18 266.34 190.34 245.3" opacity="0.2"/><polygon points="242.3 238.18 258.37 245.3 315.25 237.44 302.56 229.57 242.3 238.18" fill="#4C956C"/><polygon points="242.3 238.18 258.37 245.3 315.25 237.44 302.56 229.57 242.3 238.18" opacity="0.3"/><polygon points="258.2 266.34 258.37 245.3 242.3 238.18 242.3 258.22 258.2 266.34" fill="#4C956C"/><polygon points="258.2 266.34 258.37 245.3 242.3 238.18 242.3 258.22 258.2 266.34" opacity="0.4"/><polygon points="258.37 245.3 315.25 237.44 316.14 257.42 258.2 266.34 258.37 245.3" fill="#4C956C"/><polygon points="258.37 245.3 315.25 237.44 316.14 257.42 258.2 266.34 258.37 245.3" opacity="0.2"/><rect x="189.44" y="56.97" width="33.11" height="31.75" rx="2.76" fill="#e6e7e8"/><rect x="192.68" y="51.8" width="26.57" height="5.17" rx="2.16" fill="#4C956C"/><rect x="192.68" y="63" width="26.57" height="19.01" fill="#4C956C" opacity="0.3"/><rect x="196.43" y="66.99" width="19.97" height="9.9" fill="#4C956C" opacity="0.3"/><rect x="245.77" y="49.71" width="33.11" height="31.75" rx="2.76" fill="#e6e7e8"/><rect x="249.02" y="44.54" width="26.57" height="5.17" rx="2.16" fill="#4C956C"/><rect x="249.02" y="55.74" width="26.57" height="19.01" fill="#4C956C" opacity="0.3"/><rect x="252.77" y="59.73" width="19.97" height="9.9" fill="#4C956C" opacity="0.3"/><rect x="183.14" y="148.17" width="22.83" height="32.63" rx="1.12" fill="#e6e7e8"/><rect x="186.73" y="150.74" width="15.67" height="26.98" rx="0.66" fill="#4C956C" opacity="0.3"/><rect x="185.19" y="157.16" width="18.5" height="12.42" rx="0.4" fill="#2C6E49"/><rect x="183.14" y="143.28" width="22.83" height="4.89" rx="2.05" fill="#2C6E49"/><rect x="220.17" y="143.82" width="22.83" height="32.63" rx="1.12" fill="#e6e7e8"/><rect x="223.77" y="146.38" width="15.67" height="26.98" rx="0.66" fill="#4C956C" opacity="0.3"/><rect x="222.23" y="152.81" width="18.5" height="12.42" rx="0.4" fill="#2C6E49"/><rect x="220.17" y="138.93" width="22.83" height="4.89" rx="2.05" fill="#2C6E49"/><rect x="256.06" y="139.07" width="22.83" height="32.63" rx="1.12" fill="#e6e7e8"/><rect x="259.65" y="141.64" width="15.67" height="26.98" rx="0.66" fill="#4C956C" opacity="0.3"/><rect x="258.11" y="148.07" width="18.5" height="12.42" rx="0.4" fill="#2C6E49"/><rect x="256.06" y="134.19" width="22.83" height="4.89" rx="2.05" fill="#2C6E49"/><rect x="293.3" y="134.3" width="22.83" height="32.63" rx="1.12" fill="#e6e7e8"/><rect x="296.89" y="136.87" width="15.67" height="26.98" rx="0.66" fill="#4C956C" opacity="0.3"/><rect x="295.35" y="143.29" width="18.5" height="12.42" rx="0.4" fill="#2C6E49"/><rect x="293.3" y="129.41" width="22.83" height="4.89" rx="2.05" fill="#2C6E49"/><polygon points="392.84 68.04 392.84 141.75 583.85 116.21 583.85 47.52 392.84 68.04" fill="#fff" opacity="0.5"/><polygon points="551.61 97.36 583.85 116.21 392.84 141.75 392.84 117.46 551.61 97.36" fill="#fff" opacity="0.6"/><polygon points="552.53 50.89 551.61 97.36 583.85 116.21 583.85 47.52 552.53 50.89" fill="#fff" opacity="0.5"/><polygon points="391.79 165.37 391.79 239.08 582.81 213.53 582.81 144.84 391.79 165.37" fill="#fff" opacity="0.5"/><polygon points="550.56 194.68 582.81 213.53 391.79 239.08 391.79 214.78 550.56 194.68" fill="#fff" opacity="0.6"/><polygon points="551.49 148.21 550.56 194.68 582.81 213.53 582.81 144.84 551.49 148.21" fill="#fff" opacity="0.5"/><polygon points="392.84 261.73 392.84 335.44 583.85 309.89 583.85 241.21 392.84 261.73" fill="#fff" opacity="0.5"/><polygon points="551.61 291.05 583.85 309.89 392.84 335.44 392.84 311.15 551.61 291.05" fill="#fff" opacity="0.6"/><polygon points="552.53 244.58 551.61 291.05 583.85 309.89 583.85 241.21 552.53 244.58" fill="#fff" opacity="0.5"/><polygon points="392.64 359.54 392.64 433.25 583.65 407.71 583.65 339.02 392.64 359.54" fill="#fff" opacity="0.5"/><polygon points="551.4 388.86 583.65 407.71 392.64 433.25 392.64 408.96 551.4 388.86" fill="#fff" opacity="0.6"/><polygon points="552.33 342.39 551.4 388.86 583.65 407.71 583.65 339.02 552.33 342.39" fill="#fff" opacity="0.5"/><polygon points="422.4 77.6 448.92 89.36 533.97 77.6 510.45 65.02 422.4 77.6" fill="#4C956C"/><polygon points="422.4 77.6 448.92 89.36 533.97 77.6 510.45 65.02 422.4 77.6" opacity="0.3"/><polygon points="448.65 124.09 448.92 89.36 422.4 77.6 422.4 110.69 448.65 124.09" fill="#4C956C"/><polygon points="448.65 124.09 448.92 89.36 422.4 77.6 422.4 110.69 448.65 124.09" opacity="0.4"/><polygon points="448.92 89.36 533.97 77.6 533.97 110.96 448.65 124.09 448.92 89.36" fill="#4C956C"/><polygon points="448.92 89.36 533.97 77.6 533.97 110.96 448.65 124.09 448.92 89.36" opacity="0.2"/><rect x="512.27" y="175.23" width="33.11" height="31.75" rx="2.76" fill="#e6e7e8"/><rect x="515.52" y="170.06" width="26.57" height="5.17" rx="2.16" fill="#4C956C"/><rect x="515.52" y="181.26" width="26.57" height="19.01" fill="#4C956C" opacity="0.3"/><rect x="519.27" y="185.25" width="19.97" height="9.9" fill="#4C956C" opacity="0.3"/></g><polygon points="136.41 489.41 216.54 532.77 760.01 453.56 688.31 419.82 136.41 489.41" fill="#d1d3d4"/><polygon points="216.54 532.77 213.48 566.29 760.01 488.05 760.01 453.56 216.54 532.77" fill="#a7a9ac"/><polygon points="444.11 453.56 459.1 484.88 553.79 473.42 532.83 441.95 444.11 453.56" fill="#fff"/><path d="M460.28,460.19a.59.59,0,0,1-.59-.53.59.59,0,0,1,.52-.66l49.4-6a.59.59,0,1,1,.15,1.18l-49.41,6Z" fill="#d1d3d4"/><path d="M466.45,465.19a.6.6,0,0,1-.59-.51.61.61,0,0,1,.51-.68l46.46-6.76a.6.6,0,1,1,.17,1.18l-46.46,6.76Z" fill="#d1d3d4"/><path d="M466.45,474a.6.6,0,0,1-.59-.52.61.61,0,0,1,.52-.67l52.13-6.76a.59.59,0,0,1,.67.51.6.6,0,0,1-.51.67L466.53,474Z" fill="#d1d3d4"/><polygon points="448.21 462.13 441.16 463.42 455.28 489.41 502.59 479.62 459.1 484.88 448.21 462.13" opacity="0.2"/><path d="M743.32,334.4l-2.93-11.67-66.9-35.58H658.28c-8.19.21-10.28,2.84-10.61,5a14.91,14.91,0,0,1-5.34,9.76,71.52,71.52,0,0,1-14.41,8.22s-22.63,5.77-26.47,52.59c0,0,3.59,43.41-9.39,70.38l-65.54,2.05s-8.87,7.17-7.85,26.28L604,473.37s10.58,1.36,16.73-10.58l13.31-22.87,1,30s67.25,5.12,94.22-10.25l2.39,8.88s16.38-.34,19.11-34.48Z" fill="#4C956C"/><path d="M386.25,266.32l37.82,1.92L417,306.36s-4.91,90.87-5.15,91.85-6.48,21.61-6.48,21.61-22.5-1.72-23.73-1.72-22.1-12-22.1-12l3.68-92.33,5.92-35.86Z" fill="#fff"/><path d="M387.06,354.5s-4.41-4.6-14.29,0c0,0-10.78,5.71-11.29,2l-2,49.59,22.1,12,23.73,1.72,6.48-21.61-8.6-41.5S397.66,359.65,387.06,354.5Z" fill="#e6e7e8"/><path d="M386.26,266.32s-35.53,9.75-47.83,33.3l-18.77,32.09-14-35.34-30.73,11.1s4.38,46.57,16,76.82c4.84,12.6,11,22.36,18.55,24.77a8.58,8.58,0,0,0,7.54-1.26,214.15,214.15,0,0,0,33-30h0s-5.22,73.08-5.22,85.36l22.29-2.83s3.17-73.62,2-86.29h0S357.27,290.71,386.26,266.32Z" fill="#4C956C"/><path d="M386.26,266.32s-35.53,9.75-47.83,33.3l-18.77,32.09-14-35.34-30.73,11.1s4.38,46.57,16,76.82c4.84,12.6,11,22.36,18.55,24.77a8.58,8.58,0,0,0,7.54-1.26,214.15,214.15,0,0,0,33-30h0s-5.22,73.08-5.22,85.36l22.29-2.83s3.17-73.62,2-86.29h0S357.27,290.71,386.26,266.32Z" fill="#fff" opacity="0.4"/><path d="M548.37,399,530.28,429,488,404.42c-28.13-14.07-37.7-41.31-38.8-44.71,0-.14-.07-.24-.1-.3a.21.21,0,0,1,0-.06L445.62,400c4.44,6.83,16.69,48.34,16.69,48.34l-19.83,2.5-37,4.67s-3.6-57.89-5-76c0,0-4.48-39.82,2.15-56.69l21.46-54.59a119.73,119.73,0,0,1,21.38,6.06c1.63.65,3.3,1.16,5,1.69,27.83,8.87,45.71,78.93,45.71,78.93Z" fill="#4C956C"/><path d="M548.18,398.78l-18.07,30-42.27-24.54c-28.1-14.05-37.66-41.26-38.76-44.65l-.09-.3a.21.21,0,0,1,0-.06l-3.42,40.57c4.43,6.83,16.75,48.52,16.75,48.52l-19.83,2.5-37,4.67s-3.61-58.06-5-76.11c0,0-4.47-39.77,2.15-56.62L424,268.24a118.64,118.64,0,0,1,21.34,6.05c1.64.65,3.31,1.16,5,1.69,27.8,8.86,45.65,78.83,45.65,78.83Z" fill="#fff" opacity="0.4"/><path d="M350,377.79h0a214.15,214.15,0,0,1-33,30,8.58,8.58,0,0,1-7.54,1.26c-7.59-2.41-13.71-12.17-18.55-24.77,28,25.6,49.86-6.85,49.86-6.85-14.34-20.81,0-42.31,0-42.31C328.19,356.63,350,377.79,350,377.79Z" fill="#fff" opacity="0.4"/><path d="M357,280.05s-4.28,21.28-4.42,27.08l10.8-3.76-10.8,10.93s7.28,44.37,16.55,59.73c0,0-10.52-84,16-106.8a.32.32,0,0,0-.28-.55C381.15,267.72,370.47,271.2,357,280.05Z" fill="#fff" opacity="0.4"/><path d="M424.07,268.24l-21.46,54.59s-7.17,13-1.7,60.76c0,0,4.61-55.64,31.83-72l-8.67-7.51,11.31-.69L450.43,276S431.59,268.63,424.07,268.24Z" fill="#fff" opacity="0.4"/><path d="M367.11,460.32l38.33-4.83-2.67-42s-24,5.13-33.76-7.39Z" fill="#2C6E49"/><path d="M369,406.06s-3.12,15.73,14.81,18.18c0,0,9.58,0,13.51,7.37l7.87,21.91a.06.06,0,0,0,.12,0l-2.55-40.05S378.5,419.31,369,406.06Z" opacity="0.2"/><path d="M442.48,450.82s10.49-41.06-16.27-50.28c0,0,22.15-24.61,15.69-52.92L449,359.35,445.62,400c4.44,6.83,16.69,48.34,16.69,48.34Z" fill="#fff" opacity="0.4"/><path d="M532.83,424.76s10.19,3.14,15.54,2.31l8.84-26.23L548.37,399Z" fill="#f9b499"/><path d="M577.79,420.11l-3.32,10.95S584.6,435.57,577.79,420.11Z" fill="#f9b499"/><rect x="550.64" y="395.47" width="28.48" height="38.46" rx="2.77" transform="matrix(0.95, 0.3, -0.3, 0.95, 151.99, -151.5)" fill="#e6e7e8"/><rect x="553.66" y="398.17" width="21.51" height="33.06" rx="2.77" transform="translate(151.97 -151.36) rotate(17.62)" fill="#4C956C" opacity="0.3"/><rect x="558.54" y="390.69" width="26" height="5.81" rx="2.43" transform="translate(145.91 -154.51) rotate(17.62)" fill="#4C956C"/><path d="M284.78,256.31c-1.86,6.25,1.23,8.41,2.42,9a4.25,4.25,0,0,1,.94.62l.21.18a10,10,0,0,1,3,9.23L285.18,309a2.27,2.27,0,0,1-2.64,1.83l-30-5.39a2.27,2.27,0,0,1-1.83-2.69l7-34.53s1.24-5.94,10.33-7c0,0,3.87-.5,4.08-7.47Z" fill="#e6e7e8"/><rect x="270.96" y="250.96" width="16.52" height="4.93" rx="2.06" transform="translate(59.54 -53.06) rotate(12.14)" fill="#4C956C"/><polygon points="257.56 269.07 291.14 276.53 286.9 299.64 252.89 292.18 257.56 269.07" fill="#4C956C"/><path d="M760,640.29s-25.94,19.11-44.37,17.07L600.31,640.29,635.07,470s68.95,3.77,94.22-10.24l2.39,8.88,14.68,31.9a57.84,57.84,0,0,1,5.18,20.16Z" fill="#2C6E49"/><path d="M760,640.29s-25.94,19.11-44.37,17.07L600.31,640.29,635.07,470l-3.35,88.66,17,7.95-19.8,6.82,11.59,8.88-17,24.57S692.42,662.14,760,640.29Z" opacity="0.2"/><polygon points="136.41 489.41 134.11 527.06 213.48 566.29 216.54 532.77 136.41 489.41" fill="#bcbec0"/><polygon points="217.72 489.41 261.26 508.14 314.24 493.73 271.21 481.55 217.72 489.41" opacity="0.2"/><path d="M169.89,361.36s-6.8-14.07,17-11.42l121,7.81a11.56,11.56,0,0,1,10.55,9.14l17.11,80.82a9.41,9.41,0,0,1-.6,6,9.12,9.12,0,0,1-7.08,5.14S171.84,360,169.89,361.36Z" fill="#2C6E49"/><path d="M169.89,361.36s-6.8-14.07,17-11.42l121,7.81a11.56,11.56,0,0,1,10.55,9.14l17.11,80.82a9.41,9.41,0,0,1-.6,6,9.12,9.12,0,0,1-7.08,5.14S171.84,360,169.89,361.36Z" opacity="0.2"/><path d="M649.06,207.67s-6.82,6.24-9,21.36a37,37,0,0,1-3.69,11.89,43.91,43.91,0,0,1-3.23,5.39,1.58,1.58,0,0,0,.32,2.18l2.57,2a2.32,2.32,0,0,1,.89,2.24c-.76,4.59-2.47,19.27,7.14,19.27h12.33v15.19h22.06V266.74s4.27-3.08,5.22-5.93V241.32l-17.31-22.26S655.94,203.4,649.06,207.67Z" fill="#f9b499"/><path d="M656.41,272l17.08-3.72s-2.37,8.94-17.08,13.69Z" fill="#f7a48b"/><path d="M648.05,373.35s-10.24,55.3-14,66.57l1,30,28.33.8S646.68,428,648.05,373.35Z" opacity="0.2"/><path d="M730.31,354.24s-8.19,79.87-1,105.47l7.51-22.52s3.41-12.47,0-32.86Z" opacity="0.2"/><path d="M640.53,303.22s23.22,21,20.15,80.37c0,0-8.88,52.91,7.51,84.32a16.16,16.16,0,0,1,2,9.56" fill="none" stroke="#fff" stroke-miterlimit="10"/><path d="M738.56,339.59c-.39.33-.81.63-1.25.94,0,0,.24-8.31-5.7-10.92,0,0-.47,27.52-21.59,24.2,0,0-11.39-.48-16.83-19,0,0-2.62,13.76,12.8,20.87a35.38,35.38,0,0,1-3.64,2.2c-7.44,4-24.66,10.65-35.73-5.52,0,0-10.69-16.13-1.66-41.75l13.52-43.89,2.9-24.47s-8.12-.91-9.54-7.55c0,0-1,6.4,3.32,10,0,0-16.37,6.65-18.75-10.44,0,0,2.38-26.57-7.36-26.57,0,0-6.57,5.7-9,21.36a35.21,35.21,0,0,1-2.7,9.8s-5.66-5-5.66-16.83a39.55,39.55,0,0,1,4.44-17.77c3.23-6.44,8.59-13.9,15.06-10.31a14.28,14.28,0,0,0,4.39,1.67,48.38,48.38,0,0,0,19.55-1s28.7-11.19,31.07,12.32c0,0,21.11-3.53,18.27,26.6l-7.36,30.59s-4.55,15.21.6,28.94a33.13,33.13,0,0,0,2.24,4.76,51.26,51.26,0,0,0,17.33,17.79S753.52,328,738.56,339.59Z" fill="#2C6E49"/><path d="M738.56,339.59s1.83-23.5-14.78-25.4c0,0-18.26.95-18.26-13.52,0,0-7.71,19.65,3.8,25.27a10.08,10.08,0,0,0,8.26.12,17.86,17.86,0,0,0,4.78-2.86s5.22-4.74,5.22,6.64a27.05,27.05,0,0,1-4.74,13.53,25.43,25.43,0,0,0-.24-7.36s-18.27,27.05-30.37-11.63c0,0-8.46,17.21,10.12,33.52-7.44,4-24.66,10.65-35.73-5.52,0,0-10.69-16.13-1.66-41.75l13.52-43.89,2.9-24.47s-8.12-.91-9.54-7.55c0,0-1,6.4,3.32,10,0,0-16.37,6.65-18.75-10.44,0,0,2.38-26.57-7.36-26.57,0,0-6.57,5.7-9,21.36a35.21,35.21,0,0,1-2.7,9.8s-5.66-5-5.66-16.83a39.55,39.55,0,0,1,4.44-17.77c3.23-6.44,8.59-13.9,15.06-10.31a14.28,14.28,0,0,0,4.39,1.67s8.63,11.84,17.89,8c0,0,10.88-5,14.8,3.3,0,0,1.85-1.24,0-8,0,0,12.71,6.4,7,14.23L683.69,224,695.12,219c7.68-3.4,16.78,1.23,18,9.53.05.33.08.66.12,1a10.21,10.21,0,0,1-.42,3.8c-2.57,8.75-13.35,49.61,4.89,59.78a33.13,33.13,0,0,0,2.24,4.76,51.26,51.26,0,0,0,17.33,17.79S753.52,328,738.56,339.59Z" opacity="0.2"/><ellipse cx="686.66" cy="253.34" rx="11.51" ry="12.45" fill="#f9b499"/><path d="M602.47,491.52l-2.12,21a7.85,7.85,0,0,0,6.86,8.58l63.13,7.61A14.9,14.9,0,0,1,669,519l2.76-15.15Z" fill="#4C956C"/><path d="M672.24,476.94s10.62-1.18,11,9.4l-4.1,34.14s-2.34,9.9-8.77,8.19c0,0-2.72-2.95-1.07-11.7l2.59-14.09,2.65-23.08A2.41,2.41,0,0,0,672.24,476.94Z" fill="#4C956C"/><path d="M672.24,476.94s10.62-1.18,11,9.4l-4.1,34.14s-2.34,9.9-8.77,8.19c0,0-2.72-2.95-1.07-11.7l2.59-14.09,2.65-23.08A2.41,2.41,0,0,0,672.24,476.94Z" fill="#fff" opacity="0.4"/><rect x="602.94" y="473.12" width="70.24" height="32.58" rx="2.16" transform="translate(59.95 -69.55) rotate(6.55)" fill="#4C956C"/><rect x="602.94" y="473.12" width="70.24" height="32.58" rx="2.16" transform="translate(59.95 -69.55) rotate(6.55)" fill="#fff" opacity="0.2"/><rect x="622.61" y="495.22" width="27.65" height="6.13" transform="translate(60.95 -69.31) rotate(6.55)" fill="#fff" opacity="0.2"/><path d="M518.59,459.71s-13.35.16-20.78-5.83a11.13,11.13,0,0,1-1.48-1.35,6,6,0,0,0-3.88-1.93c-1.47-.09-2.93.45-2.93,3,0,0-1.21,8-6.8,5.56a1.8,1.8,0,0,1-1-1.2,2,2,0,0,1,.6-2,2.73,2.73,0,0,0,1.11-2.35s-3.46-10.67,5.32-13.33a12.08,12.08,0,0,1,13.3-4s5.49-2.87,15.46-2l9,.9A35.74,35.74,0,0,0,518.59,459.71Z" fill="#f9b499"/><path d="M497.81,453.88a11.13,11.13,0,0,1-1.48-1.35,6,6,0,0,0-3.88-1.93c-1.47-.09-2.93.45-2.93,3,0,0-1.21,8-6.8,5.56a1.8,1.8,0,0,1-1-1.2,7.52,7.52,0,0,0,2.42-1.2,9.81,9.81,0,0,0,3.25-4.12C488.55,449.87,491.94,444.53,497.81,453.88Z" fill="#f7a48b"/><path d="M375.61,250.76s-.7,7.82-6.5,11c0,0,10.67,5,17.14,0v-9.28S379.39,252.83,375.61,250.76Z" fill="#2C6E49"/><path d="M386.25,252.51v13.81s-8.68,3.53-9.64,16.36c0,0-2.85,15.71,9.64,13.47,0,0,16.7-5.46,24.7-17.32a60.18,60.18,0,0,1,13.12-10.58s-10.9-5.46-10.9-20.85v-9.61l-5.83-3.22A29.13,29.13,0,0,1,386.25,252.51Z" fill="#f9b499"/><path d="M386.25,252.51v11.08s18.3-7.09,16.59-21.26C402.84,242.33,397,251.05,386.25,252.51Z" fill="#f7a48b"/><ellipse cx="383.96" cy="216.69" rx="26.99" ry="35.83" fill="#f9b499"/><path d="M438.36,260s-6.75,5.76-18,5.48c0,0-9.19-6-7.2-27.68l-2.27-23.14c-15.43,3.49-20.18-11.51-20.18-11.51-3.54,5.14,3.52,10.59,3.52,10.59-23.09-4.17-32.65-17.11-32.65-17.11s-10.48,16.5,0,41.38c0,0-10.5-6.36-8.31-21.31,0,0,1-13.55-.31-18,0,0-4.09-17,13.33-24.42,0,0,15.06-9,29.85-7.8,8.64.69,17.19,4.89,22.58,16.41,0,0,11.46-1.71,17.9,5.6h0c2.24,2.52,3.86,6.12,4.22,11.23a31.8,31.8,0,0,1-4.27,17.85c-1.55,2.72-3.56,6.09-5.8,9.4a15.59,15.59,0,0,0-1,16.14c2.31,4.23,7,8.31,16.14,9.82,0,0-6.2,6-17,2C429,255,431.56,259,438.36,260Z" fill="#2C6E49"/><path d="M416.75,238s4.6,24.59,21.61,22c0,0-10.39,7.2-18.81,4.8,0,0-8.15-4.55-6.38-27Z" opacity="0.2"/><path d="M436.64,188.52c-9.31-3.2-19.5,0-19.5,0-6-6.2-19.21-7.66-19.21-7.66,3.2-3,13,0,13,0-1.29-7.25-12.95-13.43-14.78-14.35,8.64.69,17.19,4.89,22.58,16.41C418.74,182.92,430.2,181.21,436.64,188.52Z" opacity="0.2"/><path d="M361.6,196.62s4.61-10.66,17.11,2.91c0,0,2,2.81,4.41-2,0,0,3.95-9.61,11.48.2,0,0,8.78,13,29.47,7.41a11.66,11.66,0,0,1-6.89,8.77s-4.21-.83-7.24,1.44c0,0-14,2.21-19.21-12.21,0,0-4.16,4.77,3.52,10.59C394.25,213.73,374.91,211.72,361.6,196.62Z" opacity="0.2"/><ellipse cx="415.26" cy="225.86" rx="11.38" ry="12.14" fill="#f9b499"/><path d="M545.92,419.27a19.3,19.3,0,0,0,14.37-2.76,4.56,4.56,0,0,1,4.87-.15l6.06,3.62a.88.88,0,0,0,1.19-1.23l-7-10.79a8,8,0,0,0-6.69-3.63h-7.13" fill="#f9b499"/><path d="M321.84,461.86l-125.93-5.69a6.91,6.91,0,0,1-6.43-5.42l-19.59-89.39A6.9,6.9,0,0,1,177,353l128.47,7.57a6.9,6.9,0,0,1,6.36,5.57l17.05,87.51A6.9,6.9,0,0,1,321.84,461.86Z" fill="#2C6E49"/><path d="M296.16,486l-38.75-.38s-4.67-1.42,0-15l12.86-28a3.29,3.29,0,0,0-2.72-4.65l-32.36-2.66a3.27,3.27,0,0,0-3.28,2L216,473.69a7.22,7.22,0,0,0-.6,2.86V485a5.35,5.35,0,0,0,4.34,5.25l35.73,6.95a7,7,0,0,0,1.88.11l39-2.94a3.29,3.29,0,0,0,3-3.28v-1.81A3.28,3.28,0,0,0,296.16,486Zm-59.11-17.6c-3.31,0-6-3.32-6-7.41s2.68-7.42,6-7.42,6,3.32,6,7.42S240.37,468.39,237.05,468.39Z" fill="#2C6E49"/><path d="M296.16,486l-38.75-.38s-4.67-1.42,0-15l12.86-28a3.29,3.29,0,0,0-2.72-4.65l-32.36-2.66a3.27,3.27,0,0,0-3.28,2L216,473.69a7.22,7.22,0,0,0-.6,2.86V485a5.35,5.35,0,0,0,4.34,5.25l35.73,6.95a7,7,0,0,0,1.88.11l39-2.94a3.29,3.29,0,0,0,3-3.28v-1.81A3.28,3.28,0,0,0,296.16,486Zm-59.11-17.6c-3.31,0-6-3.32-6-7.41s2.68-7.42,6-7.42,6,3.32,6,7.42S240.37,468.39,237.05,468.39Z" opacity="0.2"/><path d="M304.23,296.89l-18.08,6.53a20.19,20.19,0,0,1-.54-8A19.49,19.49,0,0,1,291,284.19s-6.54-3.48-8.53-7.13a2.69,2.69,0,0,1,.46-3.2h0a2.71,2.71,0,0,1,2.16-.79,20.67,20.67,0,0,1,12.38,5.82,6.36,6.36,0,0,1,1.62,2.55Z" fill="#f9b499"/><path d="M285.61,295.4A19.49,19.49,0,0,1,291,284.19s-6.54-3.48-8.53-7.13a2.69,2.69,0,0,1,.46-3.2,47.93,47.93,0,0,0,10.25,10.33S287.27,290.3,285.61,295.4Z" fill="#f7a48b"/></svg>